<svg width="24" height="24" viewBox="0 0 24 24" fill="none" xmlns="http://www.w3.org/2000/svg">

  <path d="M12 9.5C10.62 9.5 9.5 10.62 9.5 12C9.5 13.38 10.62 14.5 12 14.5C13.38 14.5 14.5 13.38 14.5 12C14.5 10.62 13.38 9.5 12 9.5Z" stroke="currentColor" stroke-width="2"></path>

  <path d="M19 12C19 11.58 18.96 11.17 18.88 10.77L21 9.2L19 5.8L16.48 6.55C15.86 6.05 15.16 5.65 14.4 5.37L14 3H10L9.6 5.37C8.84 5.65 8.14 6.05 7.52 6.55L5 5.8L3 9.2L5.12 10.77C5.04 11.17 5 11.58 5 12C5 12.42 5.04 12.83 5.12 13.23L3 14.8L5 18.2L7.52 17.45C8.14 17.95 8.84 18.35 9.6 18.63L10 21H14L14.4 18.63C15.16 18.35 15.86 17.95 16.48 17.45L19 18.2L21 14.8L18.88 13.23C18.96 12.83 19 12.42 19 12Z" stroke="currentColor" stroke-width="2" stroke-linejoin="round"></path>

</svg>